<svg xmlns="http://www.w3.org/2000/svg" width="297mm" height="210mm" viewBox="0 0 1052.36 744.09"><path d="M1018.48 365.57l-285.36 94.3-37.75 200.67L464 519.7l-316.4 39.53L289.95 377.9l-157.8-176.25L451.5 230.4 670.4 81.97l55 199.1z"/><path d="M1022.86 428.6l-331.73 43.68-130.6 195.9L391.7 484.1 53.82 466.84 281.2 309.4 203 102.8l309.37 86.77L801.9 79.17l-36.2 211.1z"/><path d="M860.96 565.6l-304.9-57.95L307 632.1l-6.2-199.52-265.96-109.9L335.9 257.3l84.72-192.37L612.9 224.08l318.3-8.98-182.24 163.7z"/><path fill="red" d="M967.77 371.8l-254 85.25-33.6 181.46L474.2 511.2l-281.63 35.7L319.3 382.95 178.84 223.57l284.26 26 194.84-134.22L706.9 295.4z"/><path fill="red" d="M971.67 428.78l-295.28 39.5-116.3 177.15-150.3-166.46-300.8-15.6L311.5 321l-69.6-186.8 275.37 78.48 257.7-99.84-32.2 190.86z"/><path fill="red" d="M827.56 552.68l-271.4-52.4-221.7 112.5-5.52-180.4L92.2 333.02l268-59.08L435.6 100l171.15 143.9 283.33-8.14-162.2 148z"/><g font-size="87.5" font-family="Heroes Legend Hollow" letter-spacing="0" word-spacing="0"><g style="line-height:85.00000238%;-inkscape-font-specification:'sans-serif Bold Oblique';text-align:start"><path d="M296.86 246.7q-21.07 58.67-32.48 76.73 4.95 1.38 20.36 1.27 4.25-5.48 20.48-43.68l15.5 35.07 23.2-17.4q-3.94-6.4-13.27-21.9 37.08-26.4 40.02-49.3.3-5.1-5.9-10-6.2-5-18.74-3.4-22.55 2.2-57.03 21.5-5.38 15.9-5.4 17.5l13.26-6.5zm28.74-3.2q-3.48 9.46-5.84 16.73 14.68-5.64 17.7-13.97 1.4-4.2-2.1-5.2-2.72-.5-9.76 2.44zm-49.5 20.18q.06-10.9 7.07-31.7 40.12-22.5 64.42-24.9 15-1.86 23 4.5 8 6.34 7.5 14.3-3.5 27.1-37.6 51.33 6.2 10.4 13.2 21.7l-37.4 27.9-12-27.2q-9.1 21.5-17.5 32.2-21 .2-33.2-3.3 15.3-24.2 31.5-69.2l-9.2 4.5zm44.1-24.7q13.85-5.76 18.97-4.9 8.6 2.5 5.37 12.28-4.7 12.92-35.3 24.7 5.8-18.2 10.95-32.1z" style="line-height:130.99999428%;-inkscape-font-specification:'Heroes Legend Hollow'"/><path d="M438.38 223.7q-14.6-13.3-46.94 10.97-9.54 7.76-17.96 20.46-8.37 12.65-11.68 23.68-5.75 14.6 1.9 23.3 7.7 8.7 33.75-1.7 26.05-10.3 41.02-45.1 8.24-21-.1-31.6zM388.73 271q-.86 6.93 5.2 6.1 6.16-.63 12.6-7.37 6.96-7.12 6.97-12.78-.2-6.3-5.35-5.37-8.36 2-15.47 11.22-3.42 4.64-3.95 8.2zm55.95-52.92q10.28 13.17.65 37.7-16.73 39-47.28 51.15-30.5 12.2-40.43.9-9.94-11.26-2.9-29.12 3.63-11.9 12.86-25.9 9.27-13.9 20.4-23 38.08-28.6 56.7-11.7zM381.3 272.4q.82-5.66 5.78-12.36 9.6-12.5 21.85-15.4 11.65-2.1 12.07 9.92-.02 9.07-9.77 18.98-9.26 9.68-18.83 10.62-12.74 1.74-11.1-11.76z" style="line-height:130.99999428%;-inkscape-font-specification:'Heroes Legend Hollow'"/><path d="M497.14 264.25q-18.65 6.65-24.56-3.12-3.52-12.6 10.95-22.65 14.52-10.1 26.44-8.63l9.14-24.45q-37.3 1.72-62.2 36.43-11.8 19.04-10.2 32.45 5 20.83 42.3 10.9l8.3-20.93zm11.33-10.8l-14.63 37.18q-48.42 12.88-54.6-13.07-1.93-16.16 11.67-37.98 28.3-39.32 78.1-41.65l-14.9 39.92q-16.1-2-26.2 5-10 6.97-8.1 13.9 3.5 5.75 28.8-3.3zm41.4-30.17q9.5-25.27 9.66-25.94-7.1.66-20.38 4.68-21.6 52.65-32.54 81.56 8 .2 20.9-3.65 1.4-3.98 14.6-34.68 3.9 23.58 18.5 30.32 4.7-6.32 14.3-18-12.5-5.03-17.2-23.1 18.3-13.67 34.9-25.97l-5.1-10.2q-13.1 10.6-37.5 25zm12.5-14.48q8.87-5.22 28.84-21.33L602 209q-22.82 16.88-35.9 26.64 2.92 11.07 19.9 17.88-15.26 18.66-24.62 31.25-17.46-5.68-21.56-19.1-3.98 10.7-7.06 19.42-19.53 5.8-35.82 5.4 13.7-36.3 37.33-93.7 19.1-5.9 34.3-7.3-2 8.2-6.15 19.2zM285.3 356.92l13.07-4.94q-10.33 31.92-26.68 69.83 3.6.3 22.7-1.4 3.2-5.8 13.6-32.8 10-2.8 18.3-5.2 30-8.9 41.5-39.4 6.5-24.1-10.8-26.7-24.2-1.1-66.5 23.3l-5.4 17.5zm39.28 5.35q12.2-2.3 15.6-10.26 2-5-.25-6.7-2.22-2.4-9.43.8-3.54 9.4-5.92 16.3zm-39.82-26.43q48.57-28.07 75.43-26.75 23.1 3.4 14.8 33.7-13.5 35.7-48.7 46.2-8.3 2.5-13.3 3.8-8.7 22.5-15.1 34-25.1 2.2-36.4 1.4 19.3-44.7 26.1-65.6l-13 4.9 9.9-31.8zm29.74 35.07q5.43-15.7 10.57-29.3 16.27-7.2 20.88-2.2 4.88 3.7 1.1 13.2-5.7 13.4-32.55 18.4z" style="line-height:130.99999428%;-inkscape-font-specification:'Heroes Legend Hollow'"/><path d="M343.07 409.54q7.88-.18 16.8.43 3.2-4.34 11.05-14.78 9.63-2.5 23.8-3.7l-.48 12.8q8.38-2.9 18.73-5.3-.46-55.5-2.86-77l-67 87.4zm72.82-105q4 36.52 4.6 99.54-18 4.23-34 9.7l.5-14.68q-7.6.62-12.9 2.02l-12.2 16.25q-13.6-.86-32.3-.5l86.1-112.33zm-21.5 57.44q1.5 11.75.7 17.63-7 1.7-17.5 3.6 7.2-9.6 16.7-21.2z" style="line-height:130.99999428%;-inkscape-font-specification:'Heroes Legend Hollow'"/><path d="M453.92 318.78q-16.97 47.68-30.15 79.9 7.68-1.33 19.44-3.6 3.2-7.05 10.2-25.9 8.8-2.4 15.8-4.52 25.3-7.54 35-33.17 5.1-18.4-9.3-20.6-20.6-1-40.8 7.8zm13.26 28.7q9.93-2.08 13.07-8.38 1.52-3.76.14-4.8-3.7-2-8.4.48-3.7 7.44-4.9 12.7zm-18.82-33.06q26.6-11.65 49.42-10.57 20.15 3 13.42 27.58-11.64 30.88-42.07 39.98-7.1 2.2-10.66 3.2-5.17 14-10.8 26.5-17.2 3.4-34.54 6.4 16.86-41.2 35.23-92.9zm9.7 41.7q3.23-14.08 8.93-25.55 11.8-6.33 18.8-2.58 4.6 3.4 1.2 11.9-5.8 11.4-29 16.2z" style="line-height:130.99999428%;-inkscape-font-specification:'Heroes Legend Hollow'"/><path d="M580.72 298.82q-44.97 7.14-54 8.9-16.95 47.83-29.5 78.16 40.15-6.46 53.04-8.56 1.05-2.67 5.3-15.24-12.3 2.38-33.57 5.3l6.5-17.36q19.1-3.24 23.5-4.18l4-10.64-23.6 3.97 6.7-18.5 34-5.02q3.4-6.33 7.5-16.83zm10.46-8.47q-7.85 19.9-14.07 31.6l-33 4.85-1.4 3.86 23.6-3.97-9.1 24.8q-10.2 2.2-23.7 4.5l-1.1 3.1q12.2-1.7 33.4-5.8-7.3 21.5-10.5 30-18.8 3.1-68.4 11.1 16.2-39.3 35.2-92.6 15.08-3 69.48-11.6zm3.72 55.55q16.92-2.94 10.93 14.46-9.32 25.47 24.25 8.7l4.97-13.06q-16.96 10.62-9.68-6.82 2.82-7.96-6.94-11.05 24.98-13 31.18-28.52 8.3-22.2-17.8-21-19 1.5-35.3 7.9-27.3 71.6-30.4 80.3 3.5.1 18.2-3L595 346zm19.6-32.44q-2.92 6.52-4.58 11.4 11.08-4.42 13.33-10.4.76-2.12-1.32-2.06-2.66-.57-7.44 1.06zm-15.74 41.6q-6.5 16.15-9.6 24.38-21.26 4.36-32.78 4.3 5.8-15.95 34.76-91.98 22.1-8.75 42.56-10.33 34.08-1.5 22.87 28.52-7.05 17.76-25.17 26.52 4.95.63.93 13.05-.6 1.4 15.62-8.82l-12.35 32.5q-50.83 25.4-36.8-13.02 2.54-5.98-.04-5.12zm10.9-46.76q11.46-3.8 15.28-3.05 8.76-.12 5.3 9.5-3.88 10.3-31.15 21.22 5.5-16.4 10.5-27.67zM269.28 523.7q12.25 2.78 31.7-3.46 30.4-11.34 43.2-36.1 4.53-9.32 2.3-19.4-1.9-4.33-10.2-4.58-8.28-.25-17.32 1.74-9.03 1.98-7.65-7.33 3.9-15.7 32.5-15.6l14-21.1q-29.8-5.36-57.1 20.4-14.5 15.1-15.7 32.15-.6 5.1 4.7 9.8 5.4 4.66 19 1.88 15.3-5.52 13.7 3.88-1.2 8.72-14.9 14.6-16.1 6.54-25.9 3.46-7.5 12.03-12.1 19.66zm-11.36 5.8q9.78-15.26 21.08-35.05 9.5 6.14 27.67-.36 7.78-3.4 8.26-6.9.12-.7-6.46 1.6-17.45 3.6-24.67-2.7-7.18-6.4-6.3-14.1 1.47-19.9 18.68-37.9 31.26-29.5 72.8-22L346.5 446q-26-.13-27.83 7.44-.26 1.7 5.38.44t16.04-.97q10.3.4 13.6 7.8 2.8 12.7-3 24.5-14.8 28.7-49.4 41.6-24.6 8.3-43.5 2.7z" style="line-height:130.99999428%;-inkscape-font-specification:'Heroes Legend Hollow'"/><path d="M404.2 482.33q-18.64 6.64-24.56-3.12-3.52-12.6 10.95-22.6 14.5-10.1 26.4-8.6l9.1-24.4q-37.3 1.8-62.3 36.5-11.9 19.1-10.3 32.5 5 20.9 42.3 10.9l8.2-20.9zm11.33-10.8L400.9 508.7q-48.4 12.9-54.6-13.06-1.93-16.16 11.67-37.98 28.27-39.33 78.05-41.65l-14.9 40q-16.12-2-26.25 5-10.08 7-8.15 13.9 3.5 5.8 28.8-3.3zm57.02-55q-16.48 1.18-24.85 4.43-21.2 52.1-29.5 78.66 12.4-1.88 22.82-3.97 14.54-37.62 31.53-79.12zm10.28-7.7q-20.37 49.63-36.93 92.58-16.32 3.4-37.36 6.5 10.95-35 34.04-91.7 14.08-5.4 40.25-7.3z" style="line-height:130.99999428%;-inkscape-font-specification:'Heroes Legend Hollow'"/><path d="M467.34 495.2q5.5 1.7 24.2-4.64 25.8-9.63 36.73-30.65 3.8-7.8 1.9-16.3-1.56-3.5-8.55-3.7-6.98-.2-14.98 1.6t-6.66-6.8q3.43-14 27.62-13.9l7.98-17.1q-22.85-3.3-43.9 17.2-12.27 12.8-13.38 27.4-.47 4.2 3.97 8.1 4.48 3.9 15.9 1.6 13.84-5 12.28 3.7-1.1 7.9-13.32 13.1-19.07 6.9-22.77 4.5-3.3 7.7-7.02 16.2zm-9.43 5.27q6.4-14.46 14.3-32.68 9 5.8 24.3.3 6.3-2.7 6.7-5.4l-5 1.8q-15.2 3.1-21.5-2.4-6.3-5.6-5.6-12.4 1.4-17.4 16.3-33 24.8-24.2 58.4-19.3l-14.1 30.3q-22.6-.2-24.1 5.8-.2.8 4.4-.2 4.6-1.1 13.68-.7 9.1.2 12 6.8 2.5 11-2.53 21.4-12.93 24.9-42.9 36.1-21.3 7.2-34.04 3.3z" style="line-height:130.99999428%;-inkscape-font-specification:'Heroes Legend Hollow'"/><path d="M537.18 484.22q5.5 1.72 24.2-4.63 25.8-9.7 36.72-30.7 3.8-7.8 1.9-16.3-1.56-3.5-8.55-3.7-6.98-.3-14.98 1.5t-6.65-6.9q3.42-14.1 27.62-14l7.97-17.1q-22.8-3.3-43.8 17.2-12.2 12.8-13.4 27.3-.4 4.2 4 8.1 4.5 3.9 15.9 1.6 13.9-5 12.3 3.7-1.1 7.8-13.3 13.1-19.1 6.8-22.8 4.4l-7 16.1zm-9.44 5.28q6.33-14.46 14.22-32.7 8.94 5.8 24.28.33 6.28-2.7 6.65-5.37 0 .04-5.1 1.82-15.3 3.16-21.6-2.37-6.3-5.5-5.6-12.3 1.3-17.3 16.2-32.9 24.8-24.2 58.4-19.3L601.1 417q-22.62-.1-24.1 5.9-.12.86 4.44-.16t13.63-.7q9.13.3 12 6.85 2.5 11-2.5 21.4-12.95 24.9-42.9 36.1-21.3 7.2-34.07 3.3z" style="line-height:130.99999428%;-inkscape-font-specification:'Heroes Legend Hollow'"/><path d="M686.58 388.17q-14.6-13.3-46.94 10.97-9.54 7.76-17.96 20.46-8.37 12.65-11.68 23.68-5.75 14.55 1.9 23.3 7.7 8.67 33.75-1.72 26.05-10.35 41.02-45.12 8.24-20.98-.1-31.57zm-49.65 47.3q-.86 6.93 5.2 6.1 6.16-.63 12.6-7.37 6.96-7.12 6.97-12.77-.2-6.3-5.35-5.38-8.36 2-15.47 11.23-3.42 4.63-3.95 8.2zm55.95-52.92q10.28 13.17.65 37.7-16.73 39-47.28 51.16-30.5 12.2-40.43.9-9.94-11.2-2.9-29.1 3.63-12 12.86-25.9 9.27-14 20.4-23 38.08-28.6 56.7-11.7zm-63.37 54.32q.9-5.66 5.8-12.35 9.6-12.5 21.9-15.42 11.7-2.1 12.1 9.93 0 9.07-9.7 18.98-9.2 9.7-18.8 10.7-12.7 1.8-11.1-11.7z" style="line-height:130.99999428%;-inkscape-font-specification:'Heroes Legend Hollow'"/><path d="M711.53 429.3q16.94-2.93 10.94 14.47-9.3 25.47 24.25 8.7l4.98-13.07q-16.97 10.63-9.7-6.82 2.84-7.95-6.93-11.04 25-13 31.18-28.52 8.28-22.2-17.84-21.05-19 1.44-35.3 7.9-27.3 71.6-30.4 80.24 3.5.1 18.2-3l10.7-27.8zm19.6-32.43q-2.9 6.52-4.57 11.4 11.08-4.43 13.33-10.4.7-2.12-1.4-2.06-2.7-.5-7.5 1.1zm-15.73 41.6q-6.5 16.15-9.6 24.38-21.26 4.36-32.78 4.3 5.8-15.95 34.76-91.98 22.1-8.75 42.56-10.33 34.08-1.5 22.87 28.52-7 17.76-25.1 26.52 5 .62 1 13.05-.6 1.38 15.6-8.82l-12.3 32.5q-50.8 25.4-36.8-13 2.6-5.9 0-5.1zm10.9-46.76q11.46-3.8 15.28-3 8.76-.1 5.3 9.5-3.88 10.3-31.15 21.2 5.55-16.4 10.57-27.6z" style="line-height:130.99999428%;-inkscape-font-specification:'Heroes Legend Hollow'"/><path d="M768.97 447.8q5.5 1.72 24.2-4.64 25.82-9.63 36.73-30.64 3.8-7.8 1.9-16.3-1.56-3.5-8.55-3.7-6.98-.24-14.98 1.55-8 1.8-6.66-6.84 3.5-14.04 27.7-13.93l8-17.1q-22.8-3.32-43.9 17.2-12.2 12.82-13.4 27.32-.4 4.17 4 8.1 4.5 3.9 15.9 1.56 13.9-4.98 12.3 3.72-1.1 7.87-13.3 13.1-19 6.82-22.8 4.44-3.2 7.65-7 16.16zm-9.43 5.27q6.33-14.45 14.22-32.68 8.94 5.8 24.27.3 6.3-2.7 6.66-5.4l-5.1 1.8q-15.3 3.1-21.6-2.4-6.3-5.6-5.6-12.4 1.3-17.4 16.2-33 24.8-24.2 58.4-19.3l-14 30.4q-22.7-.2-24.1 5.8-.2.8 4.4-.2t13.6-.7q9.1.3 12 6.9 2.5 11.1-2.6 21.4-12.96 24.9-42.9 36.1-21.26 7.2-34.04 3.3z" style="line-height:130.99999428%;-inkscape-font-specification:'Heroes Legend Hollow'"/></g><g fill="#fff" style="line-height:85.00000238%;-inkscape-font-specification:'sans-serif Bold Oblique';text-align:start"><path d="M301.27 250.88q-21.07 58.68-32.48 76.74 4.9 1.38 20.3 1.27 4.2-5.5 20.5-43.7l15.5 35 23.2-17.4q-4-6.4-13.3-21.9 37-26.4 40-49.3.3-5.2-5.9-10.1-6.2-5-18.8-3.4-22.6 2.2-57 21.5-5.4 15.9-5.4 17.5l13.2-6.5zM330 247.7q-3.47 9.45-5.83 16.73 14.68-5.65 17.7-13.97 1.4-4.2-2.1-5.2-2.72-.5-9.76 2.44zm-49.5 20.17q.07-10.9 7.08-31.7 40.12-22.5 64.42-24.88 15.08-1.9 23.05 4.4 7.97 6.3 7.5 14.3-3.5 27.1-37.57 51.3 6.18 10.3 13.22 21.6l-37.33 27.9-12-27.2q-9.12 21.4-17.45 32.2-20.97.1-33.2-3.4 15.3-24.2 31.47-69.2l-9.2 4.4zm44.1-24.7q13.86-5.75 18.98-4.9 8.6 2.5 5.37 12.3-4.7 12.9-35.32 24.7 5.8-18.22 10.97-32.1z" style="line-height:130.99999428%;-inkscape-font-specification:'Heroes Legend Hollow'"/><path d="M442.8 227.9q-14.62-13.3-46.95 10.97-9.54 7.75-17.96 20.45-8.4 12.66-11.7 23.68-5.8 14.55 1.9 23.3 7.7 8.68 33.7-1.7 26-10.36 41-45.14 8.2-20.97-.1-31.57zm-49.66 47.3q-.86 6.93 5.2 6.1 6.16-.64 12.6-7.38 6.96-7.12 6.97-12.77-.2-6.3-5.3-5.38-8.3 2-15.4 11.23-3.4 4.63-3.9 8.2zm55.95-52.93q10.2 13.17.6 37.7-16.8 39-47.3 51.16-30.5 12.2-40.5.9-10-11.27-2.9-29.13 3.6-12 12.8-25.9 9.2-13.98 20.4-23.05 38.1-28.58 56.7-11.68zm-63.4 54.33q.8-5.67 5.7-12.36 9.6-12.5 21.8-15.42 11.6-2.1 12 9.94 0 9.06-9.8 18.97-9.3 9.7-18.9 10.62-12.8 1.74-11.1-11.75z" style="line-height:130.99999428%;-inkscape-font-specification:'Heroes Legend Hollow'"/><path d="M501.55 268.45q-18.65 6.64-24.56-3.12-3.6-12.6 10.9-22.66 14.5-10.1 26.4-8.63l9.1-24.45q-37.3 1.7-62.3 36.4-11.9 19-10.3 32.4 5 20.8 42.3 10.9l8.2-20.9zm11.33-10.8l-14.63 37.17q-48.42 12.88-54.6-13.07-1.93-16.15 11.67-37.97 28.27-39.33 78.05-41.65l-14.9 39.92q-16.12-2.02-26.25 5-10.08 6.96-8.15 13.9 3.5 5.75 28.8-3.3zm41.4-30.18q9.5-25.27 9.66-25.94-7.1.66-20.38 4.68-21.6 52.7-32.54 81.6 7.95.2 20.85-3.6 1.4-3.9 14.6-34.7 3.88 23.6 18.45 30.3 4.7-6.3 14.23-18-12.5-5-17.22-23.1 18.33-13.7 34.94-25.9l-5.1-10.2q-13.1 10.6-37.5 25zm12.5-14.48q8.87-5.3 28.84-21.4l10.74 21.5-35.9 26.6q2.92 11 19.9 17.9-15.26 18.6-24.62 31.2-17.46-5.7-21.56-19.1-3.97 10.7-7.05 19.4-19.53 5.8-35.82 5.4 13.7-36.2 37.4-93.7 19.1-5.9 34.3-7.3-2 8.2-6.1 19.2zM289.7 361.1l13.08-4.92Q292.44 388.1 276.1 426q3.67.27 22.8-1.45 3.22-5.85 13.62-32.78 10.05-2.8 18.3-5.26 30.03-8.9 41.52-39.4 6.57-24.1-10.77-26.7-24.14-1.1-66.43 23.3l-5.44 17.5zm39.3 5.37q12.2-2.3 15.58-10.26 2.02-5.1-.24-6.7-2.22-2.4-9.43.8-3.5 9.4-5.9 16.3zm-39.83-26.43q48.57-28.08 75.43-26.76 23.1 3.46 14.85 33.73-13.46 35.8-48.67 46.3-8.32 2.5-13.23 3.9-8.7 22.5-15.04 34.1-25 2.2-36.3 1.4 19.3-44.7 26.1-65.6l-12.9 4.9 9.9-31.8zm29.74 35.06q5.5-15.75 10.6-29.3 16.3-7.26 20.9-2.26 4.9 3.7 1.1 13.18-5.7 13.4-32.5 18.38z" style="line-height:130.99999428%;-inkscape-font-specification:'Heroes Legend Hollow'"/><path d="M347.48 413.73q7.88-.18 16.8.43 3.2-4.33 11.05-14.78 9.63-2.46 23.8-3.66l-.48 12.85q8.38-2.83 18.73-5.25-.47-55.45-2.86-77l-67.04 87.4zm72.82-105q4.08 36.53 4.6 99.55-17.98 4.23-34 9.7l.55-14.7q-7.56.63-12.87 2.04-5.46 7.26-12.17 16.24-13.5-.86-32.2-.5l86.2-112.32zm-21.42 57.45q1.52 11.74.75 17.63-6.94 1.7-17.5 3.6 7.2-9.6 16.75-21.2z" style="line-height:130.99999428%;-inkscape-font-specification:'Heroes Legend Hollow'"/><path d="M458.33 322.97q-16.97 47.68-30.15 79.9 7.68-1.32 19.44-3.6 3.2-7.05 10.15-25.9 8.78-2.4 15.8-4.52 25.3-7.54 34.93-33.17 5.04-18.4-9.35-20.56-20.62-.97-40.82 7.85zm13.26 28.7q9.9-2.08 13-8.38 1.5-3.8.1-4.8-3.7-2-8.4.4-3.7 7.4-4.9 12.7zm-18.9-33.05q26.6-11.65 49.4-10.58 20.1 3.02 13.4 27.6-11.7 30.86-42.1 39.97-7.1 2.2-10.7 3.2-5.2 14-10.8 26.5-17.2 3.4-34.6 6.4 16.9-41.2 35.2-92.9zm9.7 41.7q3.2-14.08 8.9-25.56 11.8-6.33 18.8-2.58 4.6 3.5 1.2 11.94-5.8 11.4-29 16.2z" style="line-height:130.99999428%;-inkscape-font-specification:'Heroes Legend Hollow'"/><path d="M585.13 303q-44.97 7.15-54 8.9-16.95 47.84-29.5 78.18 40.15-6.46 53.04-8.56 1.05-2.67 5.3-15.25-12.3 2.4-33.57 5.32l6.55-17.4q19.13-3.3 23.48-4.2l3.97-10.7-23.58 3.9 6.78-18.5 34.04-5q3.4-6.4 7.5-16.9zm10.46-8.46q-7.9 19.9-14.1 31.6L548.4 331l-1.4 3.86 23.56-3.97-9.17 24.8q-10.3 2.2-23.7 4.5l-1.2 3.1q12.2-1.7 33.4-5.8-7.3 21.5-10.5 30-18.9 3.1-68.5 11.1 16.2-39.3 35.1-92.6 15-3 69.4-11.6zm3.7 55.54q16.9-2.92 10.9 14.47-9.3 25.47 24.2 8.7l4.9-13.06q-17 10.6-9.7-6.9 2.8-8-7-11.1 25-13 31.2-28.6 8.3-22.2-17.9-21.1-19.1 1.4-35.4 7.9-27.3 71.6-30.4 80.2 3.5 0 18.2-3l11-27.6zm19.6-32.43q-2.9 6.52-4.6 11.4 11.1-4.42 13.3-10.4.7-2.12-1.3-2.05-2.7-.57-7.5 1.05zm-15.8 41.6q-6.5 16.16-9.6 24.38-21.3 4.37-32.8 4.32 5.7-15.97 34.7-92 22.1-8.74 42.5-10.33 34.1-1.48 22.9 28.53-7.1 17.75-25.2 26.52 4.9.62.9 13.05-.6 1.38 15.6-8.83L640 377.4q-50.82 25.4-36.8-13.03 2.55-5.97-.03-5.1zM614 312.5q11.47-3.9 15.3-3.1 8.76-.15 5.3 9.5-3.88 10.3-31.15 21.2Q609 323.7 614 312.44zM273.7 527.9q12.24 2.77 31.7-3.47 30.4-11.34 43.2-36.1 4.52-9.32 2.3-19.4-1.9-4.32-10.2-4.58-8.3-.25-17.33 1.74-9.03 1.9-7.65-7.4 3.87-15.7 32.5-15.6l14-21.1q-29.8-5.4-57.12 20.4-14.5 15.1-15.73 32.1-.58 5.1 4.72 9.8 5.3 4.6 18.9 1.8 15.3-5.6 13.6 3.8-1.2 8.7-14.9 14.6-16.1 6.5-26 3.4-7.5 12-12.2 19.63zm-11.37 5.8q9.78-15.26 21.08-35.05 9.5 6.13 27.7-.37 7.8-3.34 8.3-6.87.1-.6-6.4 1.7-17.4 3.6-24.6-2.7-7.1-6.3-6.3-14 1.5-19.9 18.7-37.8 31.3-29.5 72.8-22L351 450.4q-25.97-.1-27.82 7.47-.24 1.7 5.4.44 5.64-1.2 16.04-.9 10.4.4 13.6 7.8 2.8 12.7-2.94 24.5-14.8 28.7-49.35 41.6-24.52 8.3-43.5 2.7z" style="line-height:130.99999428%;-inkscape-font-specification:'Heroes Legend Hollow'"/><path d="M408.6 486.52q-18.64 6.65-24.55-3.12-3.52-12.6 10.95-22.65 14.52-10.1 26.44-8.63l9.14-24.45q-37.3 1.73-62.24 36.44-11.85 19.1-10.26 32.5 5 20.9 42.3 10.9l8.23-20.9zm11.34-10.8L405.3 512.9q-48.4 12.88-54.6-13.07-1.92-16.16 11.68-37.97 28.27-39.33 78.05-41.66l-14.9 39.92q-16.12-2-26.25 5-10.08 6.97-8.15 13.9 3.5 5.76 28.8-3.3zm57.02-55q-16.48 1.2-24.85 4.44-21.1 52.1-29.4 78.65 12.4-1.8 22.8-3.9 14.5-37.6 31.5-79.1zm10.28-7.68q-20.37 49.6-36.93 92.56-16.3 3.33-37.3 6.48 11-35 34.1-91.73 14.1-5.44 40.3-7.3z" style="line-height:130.99999428%;-inkscape-font-specification:'Heroes Legend Hollow'"/><path d="M471.75 499.4q5.5 1.7 24.2-4.65 25.8-9.63 36.73-30.64 3.8-7.8 1.9-16.3-1.56-3.5-8.55-3.7-6.98-.2-14.98 1.6t-6.66-6.8q3.4-14 27.6-13.9l8-17.1q-22.9-3.3-43.9 17.2-12.3 12.8-13.4 27.4-.5 4.2 3.9 8.1 4.5 3.9 15.9 1.6 13.8-4.9 12.3 3.8-1.1 7.9-13.3 13.1-19.1 6.88-22.8 4.5-3.3 7.65-7 16.16zm-9.43 5.27q6.33-14.46 14.2-32.7 8.96 5.8 24.3.33 6.27-2.7 6.65-5.37 0 .04-5.06 1.82-15.2 3.15-21.5-2.38-6.3-5.56-5.6-12.35 1.4-17.35 16.3-32.93 24.9-24.3 58.5-19.4L535.8 432q-22.63-.1-24.1 5.9-.14.84 4.42-.18 4.57-1.02 13.65-.7 9.1.27 12 6.84 2.5 11.06-2.58 21.4-13 24.9-42.9 36.1-21.3 7.2-34.1 3.3z" style="line-height:130.99999428%;-inkscape-font-specification:'Heroes Legend Hollow'"/><path d="M541.6 488.42q5.48 1.7 24.2-4.64 25.8-9.63 36.7-30.65 3.8-7.8 1.9-16.3-1.55-3.5-8.54-3.7-6.98-.23-14.98 1.56-8 1.7-6.65-6.9 3.42-14.1 27.62-14l7.97-17.1q-22.85-3.3-43.9 17.2-12.26 12.8-13.37 27.3-.47 4.1 3.96 8.1 4.5 3.9 15.9 1.5 13.9-5 12.3 3.7-1.1 7.9-13.3 13.1-19 6.8-22.8 4.4l-7 16.1zm-9.45 5.27q6.33-14.5 14.22-32.7 8.94 5.8 24.28.3 6.28-2.7 6.65-5.4l-5.05 1.8q-15.26 3.1-21.58-2.4-6.3-5.6-5.6-12.4 1.36-17.4 16.26-33 24.86-24.3 58.45-19.4L605.66 421q-22.64-.1-24.1 5.88-.14.87 4.42-.15t13.64-.7q9.13.27 12 6.83 2.5 11.05-2.52 21.4-12.94 24.9-42.88 36.1-21.3 7.2-34.07 3.3z" style="line-height:130.99999428%;-inkscape-font-specification:'Heroes Legend Hollow'"/><path d="M691 392.36q-14.62-13.3-46.95 10.98-9.54 7.75-17.96 20.45-8.4 12.6-11.7 23.6-5.8 14.5 1.9 23.3 7.7 8.7 33.7-1.7 26-10.4 41-45.2 8.2-21-.1-31.6zm-49.66 47.32q-.86 6.92 5.2 6.08 6.16-.63 12.6-7.37 6.96-7.2 6.97-12.8-.2-6.3-5.3-5.4-8.3 2-15.4 11.2-3.4 4.6-3.9 8.2zm55.95-52.94q10.2 13.18.6 37.7-16.8 39-47.3 51.16-30.5 12.2-40.5.9-10-11.26-2.9-29.13 3.6-11.98 12.8-25.9 9.2-13.98 20.4-23.05 38.1-28.58 56.7-11.68zm-63.4 54.33q.8-5.66 5.7-12.36 9.6-12.5 21.8-15.4 11.6-2.1 12 10 0 9.1-9.8 19-9.3 9.7-18.8 10.7-12.8 1.8-11.1-11.7z" style="line-height:130.99999428%;-inkscape-font-specification:'Heroes Legend Hollow'"/><path d="M715.94 433.5q16.93-2.94 10.94 14.46-9.3 25.47 24.25 8.7l4.98-13.06q-16.9 10.63-9.6-6.82 2.8-7.95-6.9-11.05 25-13 31.2-28.52 8.3-22.2-17.8-21-19 1.5-35.3 7.9-27.3 71.6-30.4 80.3 3.5.1 18.2-3l10.7-27.8zm19.6-32.44q-2.9 6.52-4.57 11.4 11.08-4.42 13.33-10.4.76-2.12-1.32-2.06-2.66-.56-7.44 1.06zm-15.73 41.6q-6.5 16.16-9.6 24.38-21.2 4.36-32.7 4.32 5.8-15.97 34.8-92 22.1-8.74 42.6-10.33 34.1-1.48 22.9 28.53-7 17.75-25.1 26.52 5 .62.9 13.05-.6 1.38 15.6-8.83l-12.3 32.5Q706 486.2 720 447.78q2.55-5.97-.03-5.1zm10.9-46.76q11.5-3.8 15.3-3.04 8.8-.13 5.3 9.48-3.8 10.32-31.1 21.24 5.6-16.42 10.6-27.68z" style="line-height:130.99999428%;-inkscape-font-specification:'Heroes Legend Hollow'"/><path d="M773.38 452q5.5 1.7 24.2-4.64 25.82-9.63 36.73-30.65 3.8-7.8 1.9-16.3-1.5-3.5-8.5-3.7-7-.2-15 1.6t-6.6-6.8q3.5-14 27.6-13.9l8-17.1q-22.8-3.3-43.9 17.2-12.2 12.8-13.4 27.4-.5 4.2 4 8.1 4.5 3.9 15.9 1.6 13.9-5 12.3 3.7-1.1 7.9-13.3 13.1-19 6.8-22.7 4.5-3.3 7.7-7 16.2zm-9.43 5.27q6.33-14.46 14.22-32.7 8.94 5.8 24.27.33 6.3-2.7 6.66-5.37 0 .04-5.06 1.82-15.25 3.16-21.57-2.37-6.3-5.57-5.6-12.36 1.36-17.35 16.26-32.92 24.86-24.24 58.45-19.35l-14.12 30.28q-22.64-.12-24.1 5.87-.14.86 4.42-.16t13.64-.7q9.13.27 12 6.83 2.5 11.06-2.53 21.4-13 24.9-42.9 36.1-21.3 7.2-34.1 3.3z" style="line-height:130.99999428%;-inkscape-font-specification:'Heroes Legend Hollow'"/></g></g></svg>