<svg xmlns="http://www.w3.org/2000/svg" viewBox="0 0 90 90"><path d="M69.972 68.696c.184-1.07.162-2.076-.063-3.022 1.4-.04 2.81-.104 4.21-.2h.01c2.08-.176 3.8-1.033 5.17-2.572 1.41-1.585 2.05-3.428 1.9-5.532-.11-1.66-.69-3.105-1.72-4.34.78-.107 1.32-.217 1.59-.324l.03-.015c2.19-.81 3.87-2.23 5.03-4.24l.01-.01c1.27-2.17 1.36-4.53.26-7.08v.02c-1.03-2.59-3.26-4.16-6.68-4.71h.03c-.5-.09-1.06-.16-1.66-.22.14-.23.28-.47.4-.73l.01-.03c.85-1.87.942-3.79.29-5.74l-.02-.04c-.71-1.95-1.96-3.39-3.75-4.32h.02c-1.56-.88-3.745-1.2-6.55-.94v-.02c-2.04.17-10.497 2.02-25.367 5.56l.126-.21V30c1.07-1.812 1.89-3.81 2.46-5.992l-.01.01c.68-2.436.44-5.034-.713-7.79-1.34-3.28-3.85-4.68-7.53-4.22h-.013c-3.544.35-5.84 2.7-6.88 7.05-.652 2.777-1.303 4.61-1.95 5.52l-.013.014c-.72.82-1.89 1.69-3.52 2.61l-.03.012c-2.33 1.27-4.145 3.2-5.44 5.794v-.014c-.394.766-.74 1.55-1.04 2.356-1.29-.84-2.417-1.214-3.377-1.13-3.208-.13-5.77 1.77-7.69 5.687l.015-.02c-1.35 2.67-2.23 5.63-2.64 8.88v.018c-.39 3.28-.03 6.58 1.084 9.886l.015.02c1.25 3.9 4.39 5.93 9.42 6.09.27.01.516-.03.745-.11 4.26 7.51 12.81 9.65 25.622 6.43 6.46 2.1 13.115 3.48 19.972 4.14h.01c1.94.19 3.71-.354 5.3-1.625 1.596-1.285 2.546-2.905 2.854-4.87zM42.61 66.79c-.407-.133-.815-.142-1.225-.03-12.597 3.297-20.276.57-23.04-8.182-.166-.563-.505-.986-1.022-1.27-.52-.282-1.062-.34-1.626-.172-.564.166-.988.506-1.27 1.023-.284.51-.34 1.06-.172 1.62.053.19.11.38.17.57-2.205-.32-3.656-1.36-4.353-3.12l.016.01c-.907-2.68-1.207-5.35-.9-8.01.34-2.74 1.073-5.24 2.2-7.49l.017-.02c1.016-2.08 2.296-3.18 3.843-3.3.55.11 1.283.54 2.2 1.3-.055.31-.1.63-.14.94-.073.58.072 1.11.434 1.58.365.46.84.73 1.425.81.585.07 1.113-.07 1.58-.44.465-.37.734-.84.807-1.43.278-2.27.918-4.38 1.92-6.33v-.016c.888-1.773 2.123-3.1 3.704-3.98l.03-.02c2.23-1.253 3.81-2.463 4.742-3.62l.016-.02c1-1.13 1.935-3.54 2.805-7.24.53-2.214 1.62-3.48 3.27-3.796h.02c1.48-.19 2.49.35 3.05 1.615.75 1.785.92 3.464.53 5.037l-.01.016c-.46 1.785-1.13 3.42-2 4.91v.02c-1.07 1.832-1.72 3.454-1.96 4.864l-.03.122-.03.245c-.04.683-.02 1.96.07 3.83v.03c.06 1.47-.4 3.313-1.36 5.53h-.02c-.98 2.17-2.85 3.93-5.62 5.284-.53.26-.89.668-1.09 1.225-.19.555-.16 1.1.1 1.63.26.53.66.89 1.22 1.082.55.194 1.09.164 1.63-.094 3.84-1.87 6.405-4.34 7.7-7.42h-.02c1.304-2.97 1.88-5.46 1.737-7.45v-.03c-.035-.687-.057-1.28-.066-1.78 15.94-3.81 24.953-5.81 27.05-5.998v-.02c1.775-.158 3.164 0 4.165.48h.02c.793.43 1.36 1.08 1.683 1.95l.016.04c.277.86.23 1.71-.14 2.54l-.015.03c-.37.76-.95 1.285-1.738 1.58l.02-.017c-1.28.467-2.57.89-3.87 1.27-.04.01-.08.025-.124.035-.2.07-.77.24-1.69.51-.042.005-.09.016-.14.03-4.47 1.303-10.43 2.52-17.89 3.64-.59.084-1.06.362-1.41.834-.35.48-.48 1.01-.39 1.592.084.58.363 1.046.84 1.397.474.35 1 .48 1.58.39 7.67-1.14 13.81-2.38 18.42-3.72 4.85-.79 8.45-.98 10.8-.59h.03c1.7.27 2.843 1 3.43 2.17v.018c.51 1.17.49 2.26-.05 3.27l.02-.02c-.65 1.12-1.587 1.91-2.807 2.37-1.56.496-11.31 1.168-29.25 2.017h-.08c-.576.02-1.06.25-1.457.68-.4.43-.59.94-.573 1.52.02.586.24 1.08.666 1.49.42.4.92.6 1.5.59h.08c14.42-.23 22.01-.36 22.773-.404h.03c.92-.07 1.723.19 2.42.77l.012.02c.7.62 1.08 1.38 1.15 2.3.067.91-.21 1.71-.82 2.4s-1.38 1.07-2.31 1.144c-1.45.102-2.9.172-4.35.216-1.03.02-2.09.03-3.18.03-.1-.01-.2-.01-.31 0-5.25-.004-11.27-.37-18.08-1.1-.58-.06-1.102.096-1.562.47-.46.37-.72.842-.79 1.422-.06.585.097 1.105.47 1.564.37.46.844.726 1.426.79 6.67.71 12.62 1.09 17.83 1.13l.03.05c.45.65.61 1.397.465 2.23V68c-.15.89-.58 1.62-1.3 2.2-.68.544-1.43.788-2.25.73-6.74-.65-13.27-2.035-19.6-4.154z" fill="#eee" stroke="transparent" stroke-width="4"/></svg>
