<svg xmlns="http://www.w3.org/2000/svg" viewBox="0 0 90 90"><path d="M57.615 75.265c2.003-1.734 2.992-3.816 2.967-6.243v-.192c2.535-.347 4.866-1.284 6.996-2.813l.02-.02c3.25-2.404 4.844-5.3 4.778-8.69-.003-.81-.092-1.602-.27-2.37.296-.193.61-.4.943-.616l.11-.09c2.14-1.5 3.22-3.9 3.22-7.21.07-1.84-.57-3.72-1.95-5.62.65-.37 1.28-.79 1.89-1.25.31-.22.67-.5 1.08-.85.14-.12.28-.27.4-.42l.09-.13c3.19-2.91 4.75-5.81 4.68-8.69.16-2.97-1.37-5.85-4.61-8.65l-.02-.01c-5.3-4.74-12.03-5.68-20.18-2.81-.18-.19-.37-.39-.56-.6V18c-4.14-4.323-8.71-6.463-13.68-6.416-3.51-.094-7.51 1.678-11.99 5.32l-.02.02c-2.66 2.05-4.88 5.22-6.67 9.52-1.08-.577-2.17-.84-3.26-.79-3.99-.157-7.17 2.2-9.56 7.073l.02-.02c-1.68 3.34-2.77 7.02-3.27 11.038v.02c-.49 4.08-.04 8.193 1.35 12.33l.02.02c1.44 4.51 4.92 7 10.42 7.49.56 1.106 1.29 2.26 2.2 3.47l.02.02c3.1 4.425 8.31 6.025 15.64 4.798.53.61 1.15 1.226 1.85 1.85v.02c3.06 2.743 6.24 4.072 9.54 3.99h.03c3.38-.068 5.94-.878 7.69-2.43.01-.02.02-.03.03-.044zm-7.072-20.657c.038.022.076.048.115.077.258.153.515.31.77.462 1.92 1.156 3.944 1.972 6.07 2.447 1.55.35 3.143.522 4.78.52 1.663 0 3.256-.226 4.778-.674-.11 1.635-.978 3.055-2.602 4.26l-.02.02c-1.82 1.298-3.86 1.947-6.128 1.945-2.688 0-5.194-.71-7.516-2.12l.02.02c-2.36-1.47-3.575-3.364-3.642-5.686 0-.94.294-1.63.886-2.08h.04c.258-.17.547-.3.866-.39.483.41 1.01.81 1.583 1.19zm7.4-11.37c.106.033.21.058.308.078l.85.153-.13-.04c2.11.5 4.23.68 6.36.54h.02c1.28-.08 2.56-.26 3.84-.56 1.17 1.25 1.8 2.46 1.89 3.6 0 1.25-.33 2.21-.98 2.87l-.06.06-.05.04c-.35.23-.69.45-1 .67h-.02c-.35.25-.68.47-.98.67-.03.01-.06.03-.09.06-.15.06-.3.13-.44.23-.1.03-.21.07-.31.11-1.5.71-3.11 1.06-4.84 1.06-1.24 0-2.45-.14-3.62-.41-1.57-.35-3.07-.95-4.49-1.79l-.77-.47c-.68-.48-1.26-.99-1.73-1.54v.02c-.96-1.15-1.44-2.45-1.44-3.91 0-.99.33-1.72 1-2.2v-.02c.86-.48 1.98-.72 3.35-.71.97.58 2.09 1.06 3.37 1.46zm16.534-17.843l.02.02c1.762 1.518 2.687 3.034 2.774 4.546-.14 1.59-1.16 3.24-3.06 4.96-.08.09-.17.18-.25.27l-.19.23c-.17.14-.33.27-.48.37-.03.03-.06.06-.1.08-1 .77-2.11 1.39-3.33 1.85-.4.12-.81.24-1.23.35-1.2.33-2.4.53-3.6.6H65c-1.61.12-3.21-.01-4.8-.38l-.135-.04c-.232-.04-.464-.08-.694-.13-.23-.07-.45-.15-.67-.23.89-.49 1.66-1.16 2.31-2.02.01-.02.03-.04.04-.05.86-1.13 1.41-2.5 1.66-4.1.53.22 1.3.56 2.32 1 .68.3 1.36.32 2.05.06.68-.27 1.17-.73 1.47-1.41.3-.67.32-1.35.06-2.04-.27-.68-.73-1.17-1.41-1.46-2.35-1.04-3.77-1.6-4.26-1.66-.08-.01-.16-.01-.25-.02-.1-.01-.19-.01-.29-.02-.01-.04-.02-.09-.04-.13 0-.03-.01-.06-.02-.09-.28-.92-.68-1.85-1.21-2.78 5.33-1.48 9.78-.72 13.38 2.28zm-47.405 38.5l-.02-.02c-2.014-2.717-2.707-4.9-2.082-6.55.345-.65.41-1.326.193-2.024-.214-.7-.644-1.22-1.29-1.57-.65-.34-1.324-.41-2.024-.19-.71.22-1.23.65-1.58 1.29-.6.97-.95 2.01-1.04 3.13-1.99-.59-3.34-1.78-4.05-3.58l.02.02c-1.13-3.35-1.5-6.69-1.12-10v-.02c.42-3.37 1.33-6.47 2.74-9.29l.02-.01c1.26-2.58 2.85-3.95 4.77-4.1.47.06.95.28 1.44.65-.39 1.36-.75 2.78-1.08 4.28-.16.72-.03 1.39.36 2.01.39.63.94 1.02 1.65 1.18.71.16 1.38.03 2-.37.62-.39 1.01-.94 1.18-1.66 1.7-7.78 4.27-13.11 7.69-15.99l.02-.02c3.27-2.66 6.16-4.05 8.65-4.14 3.56.06 6.83 1.65 9.83 4.78.52.55 1 1.1 1.42 1.64.01.02.02.04.04.06.05.07.11.14.17.21 1.05 1.35 1.79 2.66 2.21 3.95l-.02-.1c.12.45.22.89.29 1.33v.1c.02.24.04.49.04.75 0 1.24-.27 2.26-.81 3.07l.04-.04c-.47.61-1.12.9-1.97.87-.39.01-.76-.04-1.12-.13l-.06-.02h-.02c-.8-.27-1.54-.76-2.24-1.462h-.02c-1.71-1.693-2.96-2.91-3.74-3.642-.11-.25-.26-.49-.46-.71-.46-.503-1.02-.792-1.7-.864-.68-.08-1.3.08-1.85.48-.55.4-.9.935-1.04 1.6-.28.95-.13 2.24.44 3.87l.02.04c.28.774.44 1.34.48 1.697-.05 1.653-.73 3.37-2.04 5.143l-.02.02c-1.24 1.623-2.52 2.57-3.84 2.83-.73.097-1.31.438-1.76 1.02-.45.585-.63 1.24-.54 1.967.1.724.44 1.31 1.02 1.755.58.45 1.24.63 1.96.54 2.34-.22 4.56-1.55 6.644-3.99-.04.35-.06.71-.06 1.08 0 1.528.28 2.96.83 4.298-.19.11-.374.227-.56.35-2.21 1.346-3.31 3.52-3.31 6.53-.006.29 0 .58.02.867-1.69.23-3.13 1.09-4.318 2.58l-.02.018c-1.25 1.51-1.88 3.43-1.88 5.74-.01.58.05 1.155.17 1.73-3.94.31-6.86-.67-8.747-2.93zm22.7 8.52c-2.03-.045-4.002-.926-5.917-2.642v.02c-.846-.772-1.52-1.53-2.023-2.273l-.038-.06c-.033-.048-.065-.093-.097-.134-.465-.75-.71-1.496-.732-2.235 0-.96.236-1.76.714-2.4l.01-.02c.32-.41.72-.63 1.19-.65h.29l.13.06c.15.08.3.14.46.2 1 1.42 2.41 2.69 4.22 3.82l.02.02c2.22 1.35 4.57 2.23 7.05 2.64.06.1.13.18.21.27l-.02.02c-.03.85-.39 1.58-1.08 2.2-1.02.76-2.48 1.15-4.38 1.2h-.04z"/></svg>
