<svg xmlns="http://www.w3.org/2000/svg" viewBox="0 0 90 90"><path d="M5.99 53.204c1.323 4.128 4.647 6.277 9.976 6.446.168.006.332-.005.49-.033.457.693.998 1.36 1.625 2.003 2.34 2.42 5.09 3.624 8.26 3.608.32.007.83-.048 1.53-.163.35-.057.58-.09.68-.1h.18c.57 1.053 1.36 2.107 2.38 3.167l.02.016c2.46 2.563 5.14 3.82 8.03 3.773 2.526-.01 4.735-.71 6.63-2.11 2.18-1.6 3.23-3.46 3.15-5.59v-.12c2.76-.09 5.276-.83 7.548-2.21l.018-.02c3.04-1.9 4.51-4.23 4.415-6.97.015-.94-.14-1.86-.46-2.74 2.695.51 5.45.94 8.27 1.31 5.81.76 9.76.98 11.84.66l.033-.01c2.7-.42 4.77-1.92 6.22-4.51l-.017.02c1.525-2.55 1.493-5.43-.1-8.64-1.287-3.162-5.454-5.005-12.5-5.53l-.247-.015c4.926-1.52 7.92-3.43 8.99-5.727l.02-.017c1.72-3.2 1.952-5.776.704-7.727-1.01-1.89-2.54-3.19-4.57-3.906h.03c-1.73-.646-3.703-.93-5.92-.853h-.033c-2.014.02-6.04 1.067-12.074 3.136-4.73 1.62-8.65 3.19-11.766 4.723-.776-1.394-1.86-2.814-3.247-4.264-3.53-3.68-7.416-5.5-11.65-5.46-3-.08-6.405 1.424-10.22 4.51-2.266 1.755-4.156 4.46-5.68 8.12-.92-.48-1.846-.7-2.77-.657-3.39-.13-6.11 1.875-8.17 6.02-1.4 2.843-2.317 5.97-2.74 9.385-.44 3.49-.05 6.99 1.16 10.5zm33.19 8.71h.017c1.533.803 3.14 1.387 4.822 1.757.09.19.21.37.36.55-.08.72-.52 1.37-1.32 1.96-1.13.83-2.44 1.24-3.94 1.23-1.7-.04-3.29-.84-4.76-2.38l-.01-.01c-1.37-1.41-2.08-2.79-2.15-4.13 0-.802.2-1.49.6-2.05l.01-.013c.27-.33.61-.505 1.01-.52h.373c.02.004.034.01.05.017h-.06c.254.126.512.203.77.23.946 1.283 2.346 2.414 4.2 3.394zM11.633 35.322c1.092-2.204 2.46-3.37 4.102-3.496.4.054.81.24 1.23.558-.332 1.15-.64 2.365-.92 3.643-.13.608-.027 1.177.313 1.706.335.53.806.864 1.41 1 .608.133 1.18.03 1.706-.31.53-.336.863-.807 1.002-1.412 1.453-6.63 3.64-11.19 6.56-13.66 2.79-2.25 5.245-3.41 7.368-3.49 3.025.05 5.814 1.41 8.367 4.07v-.02c1.62 1.7 2.71 3.33 3.27 4.91l.02.05c.17.61.26 1.22.26 1.82 0 1.04-.22 1.9-.67 2.56-.39.51-.94.75-1.66.72-1.07-.02-2.05-.47-2.93-1.34-1.44-1.43-2.49-2.45-3.16-3.08-.09-.23-.23-.45-.41-.66-.39-.43-.87-.67-1.44-.74-.57-.06-1.1.08-1.57.41-.47.35-.76.8-.88 1.37-.24.8-.12 1.908.36 3.317.013.01.02.03.03.05.24.655.38 1.136.41 1.44-.04 1.41-.63 2.87-1.77 4.38-1.05 1.38-2.143 2.19-3.28 2.43-.61.09-1.103.38-1.475.883-.38.503-.527 1.07-.443 1.69.09.61.38 1.102.884 1.475.505.38 1.067.53 1.69.44 2.23-.243 4.307-1.644 6.23-4.2 1.34-1.77 2.184-3.51 2.527-5.22 1.596 1.28 3.346 1.91 5.25 1.888 2.256-.02 4.017-.863 5.28-2.525l.017-.03c1.04-1.345 1.56-3.1 1.56-5.25 0-.424-.02-.85-.065-1.28 3.04-1.54 6.96-3.13 11.76-4.772 5.397-1.853 8.97-2.82 10.73-2.903h.03c1.58-.05 2.988.146 4.22.59h.03c.94.336 1.65.94 2.12 1.807.287.84.04 1.983-.737 3.43l.012-.017c-1.17 1.757-4.44 3.255-9.81 4.494l.01-.02c-6.34 1.434-12.32 3.024-17.932 4.77-.56.175-.985.52-1.28 1.03-.3.51-.386 1.056-.26 1.626.134.572.445 1.025.94 1.363.48.34 1.01.473 1.59.394 8.67-1.22 15.88-1.63 21.64-1.23 4.773.35 7.693 1.35 8.76 3 .812 1.647.89 3.11.23 4.417l-.02.018c-.695 1.26-1.686 2.01-2.97 2.25l.034-.02c-1.86.243-5.39.024-10.6-.656-5.38-.71-10.54-1.66-15.49-2.858-.46-.15-.94-.263-1.445-.342l-.11-.012c-.2-.02-.41-.047-.64-.068-.62-.065-1.17.1-1.654.49-.483.396-.76.906-.82 1.526-.064.62.1 1.173.49 1.656.4.48.91.753 1.528.82.17.02.338.03.495.05l.116.013c.18.035.36.08.54.13l.166.063c.81.28 1.58.75 2.318 1.395l.02.018c1.01.92 1.53 1.93 1.58 3.03-.096 1.197-.855 2.24-2.28 3.138l.014-.02c-1.722 1.056-3.65 1.58-5.772 1.576-2.53.003-4.873-.555-7.02-1.676h.015c-2.064-1.093-3.152-2.472-3.262-4.134-.017-.627.237-1.08.755-1.364l-.01.016c.76-.375 1.75-.56 2.97-.56.42.05 1.31.333 2.656.85.015.006.03.013.05.016 1.31.54 2.102.9 2.377 1.07.48.416 1.02.6 1.64.56.62-.045 1.14-.31 1.548-.784.41-.474.598-1.02.558-1.64-.05-.62-.31-1.134-.785-1.543-.38-.39-1.605-1.02-3.68-1.87-.02-.004-.03-.01-.05-.02-2.17-.83-3.6-1.22-4.31-1.16-2.103-.004-3.805.36-5.1 1.08l-.02.015c-2.053 1.11-3.09 2.88-3.115 5.3-1.675.07-3.08.81-4.216 2.212l-.02.02c-1.007 1.24-1.54 2.75-1.608 4.54-.16.02-.35.05-.56.087h-.013c-.357.06-.614.093-.774.1-1.91-.016-3.58-.76-5.003-2.23-1.374-1.41-2.112-3.006-2.212-4.79-.03-.627-.274-1.15-.74-1.576-.46-.424-1-.62-1.62-.59-.624.03-1.15.274-1.573.736s-.62 1.004-.595 1.625c.017.38.05.75.1 1.116-2.234-.36-3.71-1.45-4.43-3.26-.98-2.84-1.29-5.66-.946-8.47.36-2.89 1.13-5.536 2.31-7.942z"/></svg>
